<svg width="61" height="83" viewBox="0 0 61 83" fill="none" xmlns="http://www.w3.org/2000/svg">
<path d="M35.6301 48.4575C35.247 48.0743 34.7922 47.7703 34.2916 47.5628C33.791 47.3554 33.2545 47.2487 32.7126 47.2487C32.1707 47.2487 31.6342 47.3554 31.1336 47.5628C30.633 47.7703 30.1782 48.0743 29.7951 48.4575L29.0001 49.2525L28.2051 48.4575C27.4313 47.6838 26.3819 47.2491 25.2876 47.2491C24.1933 47.2491 23.1439 47.6838 22.3701 48.4575C21.5963 49.2313 21.1616 50.2808 21.1616 51.375C21.1616 52.4693 21.5963 53.5188 22.3701 54.2925L23.1651 55.0875L29.0001 60.9225L34.8351 55.0875L35.6301 54.2925C36.0133 53.9095 36.3174 53.4546 36.5248 52.954C36.7322 52.4534 36.839 51.9169 36.839 51.375C36.839 50.8332 36.7322 50.2966 36.5248 49.796C36.3174 49.2954 36.0133 48.8406 35.6301 48.4575Z" fill="#3470FF" stroke="#3470FF" stroke-linecap="round" stroke-linejoin="round"/>
<path d="M36.6301 23.4575C36.247 23.0743 35.7922 22.7703 35.2916 22.5628C34.791 22.3554 34.2545 22.2487 33.7126 22.2487C33.1707 22.2487 32.6342 22.3554 32.1336 22.5628C31.633 22.7703 31.1782 23.0743 30.7951 23.4575L30.0001 24.2525L29.2051 23.4575C28.4313 22.6838 27.3819 22.2491 26.2876 22.2491C25.1933 22.2491 24.1439 22.6838 23.3701 23.4575C22.5963 24.2313 22.1616 25.2808 22.1616 26.375C22.1616 27.4693 22.5963 28.5188 23.3701 29.2925L24.1651 30.0875L30.0001 35.9225L35.8351 30.0875L36.6301 29.2925C37.0133 28.9095 37.3174 28.4546 37.5248 27.954C37.7322 27.4534 37.839 26.9169 37.839 26.375C37.839 25.8332 37.7322 25.2966 37.5248 24.796C37.3174 24.2954 37.0133 23.8406 36.6301 23.4575Z" stroke="white" stroke-opacity="0.8" stroke-width="1.5" stroke-linecap="round" stroke-linejoin="round"/>
<rect x="0.5" y="0.5" width="60" height="82" rx="4.5" stroke="#9747FF" stroke-dasharray="10 5"/>
</svg>
